# xmcd
#
# Track frame offsets:
#	150
#	17613
#	35146
#	51082
#	64852
#	85029
#	103188
#	122735
#	138262
#	157866
#	177507
#	196173
#	212377
#	230174
#	247402
#	266870
#
# Disc length: 3760 seconds
#
# Revision: 0
# Processed by: cddbd v1.5.2PL0 Copyright (c) Steve Scherf et al.
# Submitted via: EasyCDDAExtractor 9.0.0.1
#
DISCID=e60eae10
DTITLE=Hari Mata Hari - Mix
DYEAR=1900
DGENRE=
TTITLE0=Ruzmarin
TTITLE1=Crni snijeg
TTITLE2=Ja ne pijem
TTITLE3=Starac i more
TTITLE4=Kao domine
TTITLE5=Kad dodje oktobar
TTITLE6=Zjenico oka moga
TTITLE7=Ivana
TTITLE8=Posljednji valcer sa dunava
TTITLE9=Bas ti lijepo stoje suze
TTITLE10=Zavedi me
TTITLE11=Ti si mi droga
TTITLE12=Bilo je lijepo dok je trajalo
TTITLE13=Ne lomi me
TTITLE14=Emina
TTITLE15=Upomoc
EXTD=
EXTT0=
EXTT1=
EXTT2=
EXTT3=
EXTT4=
EXTT5=
EXTT6=
EXTT7=
EXTT8=
EXTT9=
EXTT10=
EXTT11=
EXTT12=
EXTT13=
EXTT14=
EXTT15=
PLAYORDER=
